# xmcd CD database file
#
# Track frame offsets:
#	150
#	25750
#	67146
#	93090
#	121806
#	149896
#	183562
#	217999
#	241661
#	254726
#
# Disc length: 3776 seconds
#
# Revision: 0
# Processed by: cddbd v1.5PL3 Copyright (c) Steve Scherf et al.
# Submitted via: CDex 1.50
#
DISCID=920ebe0a
DTITLE=Carl Orrje Trio - Skylight
DYEAR=2003
DGENRE=Jazz
TTITLE0=What must I do?
TTITLE1=The hyacinth
TTITLE2=Sprightly steps
TTITLE3=Remebering Kurt
TTITLE4=October 23rd
TTITLE5=Flight
TTITLE6=Skylight
TTITLE7=Svartnäs
TTITLE8=Hungarian dream I (solo piano)
TTITLE9=Hungarian dream II
EXTD=YEAR: 2003
EXTT0=
EXTT1=
EXTT2=
EXTT3=
EXTT4=
EXTT5=
EXTT6=
EXTT7=
EXTT8=
EXTT9=
PLAYORDER=
